# xmcd CD database file
#
# Track frame offsets:
#	150
#	18422
#	38307
#
# Disc length: 771 seconds
#
# Revision: 4
# Processed by: cddbd v1.5.2PL0 Copyright (c) Steve Scherf et al.
# Submitted via: CDex 1.70beta2
#
DISCID=13030103
DTITLE=ちびっこフォーク - 箱庭トライアングル
DYEAR=2010
DGENRE=Vocal
TTITLE0=ESSENCE
TTITLE1=Re:Sweetness
TTITLE2=FLOWER MAZE
EXTD=rlokker@worldonline.nl YEAR: 2010
EXTT0=
EXTT1=
EXTT2=
PLAYORDER=
